<?xml version="1.0" encoding="UTF-8" standalone="no"?>
<svg
   height="128px"
   viewBox="0 0 128 128"
   width="128px"
   version="1.1"
   id="svg27"
   sodipodi:docname="io.github.mrvladus.List.svg"
   inkscape:export-filename="io.github.mrvladus.List.png"
   inkscape:export-xdpi="96"
   inkscape:export-ydpi="96"
   inkscape:version="1.4 (e7c3feb100, 2024-10-09)"
   xmlns:inkscape="http://www.inkscape.org/namespaces/inkscape"
   xmlns:sodipodi="http://sodipodi.sourceforge.net/DTD/sodipodi-0.dtd"
   xmlns:xlink="http://www.w3.org/1999/xlink"
   xmlns="http://www.w3.org/2000/svg"
   xmlns:svg="http://www.w3.org/2000/svg">
  <defs
     id="defs27">
    <linearGradient
       id="linearGradient28"
       gradientUnits="userSpaceOnUse">
      <stop
         offset="0"
         stop-opacity="0.152941"
         id="stop27"
         style="stop-color:#000000;stop-opacity:0.40983605;" />
      <stop
         offset="1"
         stop-opacity="0"
         id="stop28" />
    </linearGradient>
  </defs>
  <sodipodi:namedview
     id="namedview27"
     pagecolor="#ffffff"
     bordercolor="#000000"
     borderopacity="0.25"
     inkscape:showpageshadow="2"
     inkscape:pageopacity="0.0"
     inkscape:pagecheckerboard="0"
     inkscape:deskcolor="#d1d1d1"
     inkscape:export-bgcolor="#ffffff00"
     inkscape:zoom="5.6568543"
     inkscape:cx="26.958446"
     inkscape:cy="57.010484"
     inkscape:window-width="2240"
     inkscape:window-height="1322"
     inkscape:window-x="0"
     inkscape:window-y="0"
     inkscape:window-maximized="1"
     inkscape:current-layer="svg27" />
  <linearGradient
     id="a"
     gradientUnits="userSpaceOnUse">
    <stop
       offset="0"
       stop-opacity="0.152941"
       id="stop1" />
    <stop
       offset="1"
       stop-opacity="0"
       id="stop2" />
  </linearGradient>
  <linearGradient
     id="b"
     x1="116"
     x2="122"
     xlink:href="#linearGradient28"
     y1="88"
     y2="88" />
  <linearGradient
     id="c"
     gradientUnits="userSpaceOnUse"
     x1="40"
     x2="40"
     y1="116"
     y2="122">
    <stop
       offset="0"
       stop-opacity="0.14902"
       id="stop3"
       style="stop-color:#000000;stop-opacity:0.41347906;" />
    <stop
       offset="1"
       stop-opacity="0"
       id="stop4" />
  </linearGradient>
  <linearGradient
     id="d"
     gradientUnits="userSpaceOnUse"
     x1="6"
     x2="12"
     y1="40"
     y2="40">
    <stop
       offset="0"
       stop-opacity="0"
       id="stop5" />
    <stop
       offset="1"
       stop-opacity="0.152941"
       id="stop6" />
  </linearGradient>
  <linearGradient
     id="e"
     x1="88"
     x2="88"
     xlink:href="#a"
     y1="12"
     y2="6" />
  <path
     d="m 34.957031 125.617188 l 85.003907 -22.777344 c 4.265624 -1.144532 6.800781 -5.53125 5.65625 -9.796875 l -22.777344 -85.003907 c -1.144532 -4.265624 -5.53125 -6.796874 -9.796875 -5.65625 l -85.003907 22.777344 c -4.265624 1.144532 -6.800781 5.53125 -5.65625 9.796875 l 22.777344 85.003907 c 1.144532 4.265624 5.53125 6.800781 9.796875 5.65625 z m 0 0"
     fill="#e6d982"
     id="path6" />
  <path
     d="m 116 57.152344 v 46.746094 l 3.957031 -1.058594 c 4.28125 -1.148438 6.808594 -5.515625 5.660157 -9.796875 z m 0 0"
     fill="url(#b)"
     id="path7" />
  <path
     d="m 70.847656 116 h -46.75 l 1.0625 3.957031 c 1.148438 4.28125 5.515625 6.808594 9.796875 5.660157 z m 0 0"
     fill="url(#c)"
     id="path8" />
  <path
     d="m 12 70.847656 v -46.746094 l -3.960938 1.058594 c -4.277343 1.148438 -6.804687 5.515625 -5.65625 9.796875 z m 0 0"
     fill="url(#d)"
     id="path9" />
  <path
     d="m 94.644531 2.121094 c -0.53125 0.03125 -1.066406 0.121094 -1.601562 0.265625 l -35.886719 9.613281 h 46.742188 l -1.058594 -3.957031 c -1.003906 -3.746094 -4.476563 -6.148438 -8.195313 -5.921875 z m 0 0"
     fill="url(#e)"
     id="path10" />
  <path
     d="m 20,12 h 88 c 4.41797,0 8,3.582031 8,8 v 88 c 0,4.41797 -3.58203,8 -8,8 H 20 c -4.417969,0 -8,-3.58203 -8,-8 V 20 c 0,-4.417969 3.582031,-8 8,-8 z"
     fill="#fbf598"
     id="path11"
     sodipodi:nodetypes="sssssssss" />
  <g
     fill-opacity="0.14902"
     id="g18">
    <path
       d="m 12,24 h 104 v 2 H 12 Z"
       id="path12"
       sodipodi:nodetypes="ccccc" />
    <path
       d="m 12 56 h 104 v 2 h -104 z m 0 0"
       id="path14" />
    <path
       d="m 12 88 h 104 v 2 h -104 z m 0 0"
       id="path16" />
    <path
       d="m 32 12 v 104 h -4 v -104 z m 0 0"
       id="path18" />
  </g>
  <path
     d="M 29.5,28 H 93 c 1.65625,0 3,1.34375 3,3 0,1.65625 -1.34375,3 -3,3 H 29.5 c -1.65625,0 -3,-1.34375 -3,-3 0,-1.65625 1.34375,-3 3,-3 z"
     fill="#5f5f92"
     id="path20"
     sodipodi:nodetypes="sssssss"
     style="fill:#333333;fill-opacity:1" />
  <path
     d="M 43.5,38 H 83 c 1.65625,0 3,1.34375 3,3 0,1.65625 -1.34375,3 -3,3 H 43.5 c -1.65625,0 -3,-1.34375 -3,-3 0,-1.65625 1.34375,-3 3,-3 z"
     fill="#5f5f92"
     id="path21"
     sodipodi:nodetypes="sssssss"
     style="fill:#333333;fill-opacity:1" />
  <path
     d="M 29.5,56 H 97 c 1.65625,0 3,1.34375 3,3 0,1.65625 -1.34375,3 -3,3 H 29.5 c -1.65625,0 -3,-1.34375 -3,-3 0,-1.65625 1.34375,-3 3,-3 z"
     fill="#5f5f92"
     id="path23"
     sodipodi:nodetypes="sssssss"
     style="fill:#333333;fill-opacity:1" />
  <path
     d="m 58 66 h 20 c 1.65625 0 3 1.34375 3 3 s -1.34375 3 -3 3 h -20 c -1.65625 0 -3 -1.34375 -3 -3 s 1.34375 -3 3 -3 z m 0 0"
     fill="#5f5f92"
     id="path24"
     style="fill:#333333;fill-opacity:1" />
  <path
     d="M 29.5,84 H 97 c 1.65625,0 3,1.34375 3,3 0,1.65625 -1.34375,3 -3,3 H 29.5 c -1.65625,0 -3,-1.34375 -3,-3 0,-1.65625 1.34375,-3 3,-3 z"
     fill="#5f5f92"
     id="path26"
     sodipodi:nodetypes="sssssss"
     style="fill:#333333;fill-opacity:1" />
  <path
     d="m 58,94 h 40.5 c 1.65625,0 3,1.34375 3,3 0,1.65625 -1.34375,3 -3,3 H 58 c -1.65625,0 -3,-1.34375 -3,-3 0,-1.65625 1.34375,-3 3,-3 z"
     fill="#5f5f92"
     id="path27"
     sodipodi:nodetypes="sssssss"
     style="fill:#333333;fill-opacity:1" />
</svg>
