<?xml version="1.0" encoding="UTF-8" standalone="no"?>
<svg
   height="128px"
   viewBox="0 0 128 128"
   width="128px"
   version="1.1"
   id="svg28"
   xml:space="preserve"
   inkscape:version="1.3.2 (091e20ef0f, 2023-11-25)"
   inkscape:export-filename="atsfs.png"
   inkscape:export-xdpi="96"
   inkscape:export-ydpi="96"
   sodipodi:docname="atsfs.svg"
   xmlns:inkscape="http://www.inkscape.org/namespaces/inkscape"
   xmlns:sodipodi="http://sodipodi.sourceforge.net/DTD/sodipodi-0.dtd"
   xmlns="http://www.w3.org/2000/svg"
   xmlns:svg="http://www.w3.org/2000/svg"><defs
     id="defs28" /><sodipodi:namedview
     id="namedview28"
     pagecolor="#ffffff"
     bordercolor="#000000"
     borderopacity="0.25"
     inkscape:showpageshadow="2"
     inkscape:pageopacity="0.0"
     inkscape:pagecheckerboard="0"
     inkscape:deskcolor="#d1d1d1"
     showgrid="false"
     inkscape:zoom="7.1520037"
     inkscape:cx="27.544728"
     inkscape:cy="67.673343"
     inkscape:window-width="1116"
     inkscape:window-height="1370"
     inkscape:window-x="0"
     inkscape:window-y="0"
     inkscape:window-maximized="0"
     inkscape:current-layer="svg28" /><linearGradient
     id="a"
     gradientTransform="matrix(-1 0 0 -1 136 -172)"
     gradientUnits="userSpaceOnUse"
     x1="28"
     x2="116"
     y1="-274"
     y2="-274"><stop
       offset="0"
       stop-color="#9a9996"
       id="stop1" /><stop
       offset="0.045"
       stop-color="#f6f5f4"
       id="stop2" /><stop
       offset="0.091"
       stop-color="#c0bfbc"
       id="stop3" /><stop
       offset="0.909"
       stop-color="#c0bfbc"
       id="stop4" /><stop
       offset="0.955"
       stop-color="#f6f5f4"
       id="stop5" /><stop
       offset="1"
       stop-color="#9a9996"
       id="stop6" /></linearGradient><linearGradient
     id="b"
     gradientUnits="userSpaceOnUse"
     x1="96"
     x2="48"
     y1="0"
     y2="96"><stop
       offset="0"
       stop-color="#3d3846"
       id="stop7"
       style="stop-color:#1d1d1d;stop-opacity:1;" /><stop
       offset="0.215335"
       stop-color="#77767b"
       id="stop8"
       style="stop-color:#87868c;stop-opacity:1;" /><stop
       offset="0.43066999"
       stop-color="#5e5c64"
       id="stop9"
       style="stop-color:#7f7d87;stop-opacity:1;" /><stop
       offset="0.553146"
       stop-color="#77767b"
       id="stop10"
       style="stop-color:#bebebf;stop-opacity:1;" /><stop
       offset="0.67562097"
       stop-color="#5e5c64"
       id="stop11"
       style="stop-color:#4b474e;stop-opacity:1;" /><stop
       offset="0.80043101"
       stop-color="#5e5c64"
       id="stop12"
       style="stop-color:#94909b;stop-opacity:1;" /><stop
       offset="1"
       stop-color="#3d3846"
       id="stop13"
       style="stop-color:#211f25;stop-opacity:1;" /></linearGradient><g
     id="g28"
     transform="translate(-0.12894173,4.050331)"
     style="display:inline"><path
       d="M 11.424138,18.570754 97.941957,2.4876765 c 4.343563,-0.8074397 8.519913,2.0595981 9.327343,6.4031578 l 16.08307,86.5178247 c 0.80744,4.34356 -2.05959,8.519921 -6.40315,9.327361 l -86.517806,16.08307 c -4.343558,0.80744 -8.519916,-2.0596 -9.327356,-6.40316 L 5.0209783,27.898109 C 4.2135403,23.55455 7.0805786,19.378192 11.424138,18.570754 Z m 0,0"
       fill="#fbf598"
       id="path11-0"
       style="display:none;fill:#565656;fill-opacity:1"
       inkscape:transform-center-x="3.3942712"
       inkscape:transform-center-y="-0.10944007"
       inkscape:label="path11-0" /><path
       d="M 15.954227,13.911859 103.58011,5.8060147 c 4.39919,-0.4069475 8.29594,2.8299081 8.70289,7.2290943 l 8.10584,87.625881 c 0.40695,4.39919 -2.8299,8.29594 -7.22909,8.70289 l -87.625889,8.10584 c -4.399187,0.40695 -8.295937,-2.8299 -8.702884,-7.22909 L 8.7251323,22.614744 C 8.3181849,18.215557 11.55504,14.318807 15.954227,13.911859 Z m 0,0"
       fill="#fbf598"
       id="path11-9-2"
       style="display:none;fill:#003a9b;fill-opacity:1" /><path
       d="m 34.957031,125.61719 85.003909,-22.77735 c 4.26562,-1.14453 6.80078,-5.531246 5.65625,-9.796871 L 102.83984,8.039062 C 101.69531,3.773438 97.308594,1.242188 93.042969,2.382812 L 8.039062,25.160156 c -4.265624,1.144532 -6.800781,5.53125 -5.65625,9.796875 l 22.777344,85.003909 c 1.144532,4.26562 5.53125,6.80078 9.796875,5.65625 z m 0,0"
       fill="#e6d982"
       id="path6"
       style="display:none" /><path
       d="m 116,57.152344 v 46.746096 l 3.95703,-1.0586 c 4.28125,-1.14843 6.8086,-5.515621 5.66016,-9.796871 z m 0,0"
       fill="url(#b)"
       id="path7"
       style="display:none;fill:url(#b-5)" /><path
       d="m 70.847656,116 h -46.75 l 1.0625,3.95703 c 1.148438,4.28125 5.515625,6.8086 9.796875,5.66016 z m 0,0"
       fill="url(#c)"
       id="path8"
       style="display:none" /><path
       d="M 12,70.847656 V 24.101562 l -3.960938,1.058594 c -4.277343,1.148438 -6.804687,5.515625 -5.65625,9.796875 z m 0,0"
       fill="url(#d)"
       id="path9"
       style="display:none" /><path
       d="m 94.644531,2.121094 c -0.53125,0.03125 -1.066406,0.121094 -1.601562,0.265625 L 57.15625,12 h 46.74219 l -1.0586,-3.957031 C 101.83594,4.296875 98.363281,1.894531 94.644531,2.121094 Z m 0,0"
       fill="url(#e)"
       id="path10"
       style="display:none" /><path
       d="m 20,12 h 88 c 4.41797,0 8,3.582031 8,8 v 88 c 0,4.41797 -3.58203,8 -8,8 H 20 c -4.417969,0 -8,-3.58203 -8,-8 V 20 c 0,-4.417969 3.582031,-8 8,-8 z m 0,0"
       fill="#fbf598"
       id="path11"
       style="display:none" /><path
       d="m 13.778539,16.206552 87.999991,0.04643 c 4.41797,0.0023 7.9981,3.58625 7.99578,8.004219 l -0.0464,87.999989 c -0.002,4.41797 -3.58626,7.99811 -8.00422,7.99578 l -87.999993,-0.0464 c -4.41797,-0.002 -7.9981098,-3.58626 -7.9957784,-8.00422 l 0.04643,-87.999991 C 5.7766486,19.78436 9.36057,16.20422 13.778539,16.206552 Z m 0,0"
       fill="#fbf598"
       id="path11-0-2"
       style="display:inline;fill:#333333;fill-opacity:1" /><path
       d="m 20.006377,11.955243 h 88.000003 c 4.41797,0 8,3.582031 8,8 v 88.000007 c 0,4.41797 -3.58203,7.99999 -8,7.99999 H 20.006377 c -4.417969,0 -8,-3.58202 -8,-7.99999 V 19.955243 c 0,-4.417969 3.582031,-8 8,-8 z m 0,0"
       fill="#fbf598"
       id="path11-9"
       style="display:inline;fill:#000000;fill-opacity:1" /><g
       fill-opacity="0.14902"
       id="g18"
       style="display:none"><path
         d="m 12,24 h 104 v 2 H 12 Z m 0,0"
         id="path12" /><path
         d="m 12,40 h 104 v 2 H 12 Z m 0,0"
         id="path13-9" /><path
         d="m 12,56 h 104 v 2 H 12 Z m 0,0"
         id="path14-1" /><path
         d="m 12,72 h 104 v 2 H 12 Z m 0,0"
         id="path15-2" /><path
         d="m 12,88 h 104 v 2 H 12 Z m 0,0"
         id="path16-7" /><path
         d="m 12,104 h 104 v 2 H 12 Z m 0,0"
         id="path17-0" /><path
         d="M 32,12 V 116 H 28 V 12 Z m 0,0"
         id="path18-9" /></g></g><path
     d="m 28,61 h 72 c 4.41797,0 8,3.582031 8,8 v 43 c 0,4.41797 -3.58203,8 -8,8 H 28 c -4.417969,0 -8,-3.58203 -8,-8 V 69 c 0,-4.417969 3.582031,-8 8,-8 z m 0,0"
     fill="#deddda"
     id="path13"
     style="display:none" /><path
     d="M 100,120 H 28 c -4.417969,0 -8,-3.58203 -8,-8 V 88 c 0,-4.417969 3.582031,-8 8,-8 h 72 c 4.41797,0 8,3.582031 8,8 v 24 c 0,4.41797 -3.58203,8 -8,8 z m 0,0"
     fill="url(#a)"
     id="path14"
     style="display:none" /><path
     d="m 28,16 h 72 c 4.41797,0 8,3.582031 8,8 v 86 c 0,4.41797 -3.58203,8 -8,8 H 28 c -4.417969,0 -8,-3.58203 -8,-8 V 24 c 0,-4.417969 3.582031,-8 8,-8 z m 0,0"
     fill="#f6f5f4"
     id="path15"
     style="display:none" /><path
     d="m 28,88 v 24 h 60 v -4 h 12 V 88 Z m 0,0"
     fill="#deddda"
     id="path16"
     style="display:inline;fill:#ffffff" /><path
     d="m 28,24 v 4 h 40 v -4 z m 0,0"
     fill="#c0bfbc"
     fill-rule="evenodd"
     id="path17"
     style="display:inline;fill:#ffffff" /><path
     d="m 28,68 h 72 V 80 H 48 v 4 H 28 Z m 0,0"
     fill="#deddda"
     id="path18"
     style="display:inline;fill:#ffffff" /><path
     d="m 28,32 h 72 v 8.292341 H 28 Z m 0,0"
     fill="#deddda"
     id="path19"
     style="display:inline;fill:#ffffff;stroke-width:0.719911" /><path
     d="m 28,43.885495 h 72 V 64 H 28 Z m 0,0"
     fill="#deddda"
     id="path20"
     style="display:inline;fill:#ffffff;stroke-width:1.29468" /><path
     d="m 44,31 h 64 c 2.21094,0 4,1.789062 4,4 v 65 c 0,2.21094 -1.78906,4 -4,4 H 44 c -2.210938,0 -4,-1.78906 -4,-4 V 35 c 0,-2.210938 1.789062,-4 4,-4 z m 0,0"
     fill="#ff7800"
     id="path21"
     style="display:none" /><path
     d="m 44,30 h 64 c 2.21094,0 4,1.789062 4,4 v 64 c 0,2.21094 -1.78906,4 -4,4 H 44 c -2.210938,0 -4,-1.78906 -4,-4 V 34 c 0,-2.210938 1.789062,-4 4,-4 z m 0,0"
     fill="#ffa348"
     id="path22"
     style="display:none" /><g
     fill="#ff7800"
     id="g26"><path
       d="m 44,58 v 16 h 56 v -8 h 8 v -8 z m 0,0"
       id="path23"
       style="display:none" /><path
       d="m 44,46 v 8 h 45 v -8 z m 0,0"
       id="path24"
       style="display:none" /><path
       d="m 44,38 v 4 h 22 v -4 z m 0,0"
       id="path25"
       style="display:none" /><path
       d="M 44,78 V 96 H 77 V 85.675781 h 27 V 78 Z m 0,0"
       id="path26"
       style="display:none" /></g><path
     d="M 72,2 C 58.792969,2 48,12.792969 48,26 v 52 c 0,13.207031 10.792969,24 24,24 13.207031,0 24,-10.792969 24,-24 V 42 C 96,33.210938 88.789062,26 80,26 71.210938,26 64,33.210938 64,42 v 36 c 0,4.417969 3.582031,8 8,8 V 42 c 0,-4.464844 3.535156,-8 8,-8 4.464844,0 8,3.535156 8,8 V 78 C 88,86.882812 80.882812,94 72,94 63.117188,94 56,86.882812 56,78 V 26 c 0,-8.882812 7.117188,-16 16,-16 5.074219,0 9.558594,2.351562 12.480469,6 h 9.28125 C 89.960938,7.742188 81.640625,2 72,2 Z m 0,0"
     fill="#241f31"
     id="path27"
     style="display:inline;fill:#000000" /><path
     d="M 72,0 C 58.792969,0 48,10.792969 48,24 v 52 c 0,13.207031 10.792969,24 24,24 13.207031,0 24,-10.792969 24,-24 V 40 C 96,31.210938 88.789062,24 80,24 71.210938,24 64,31.210938 64,40 v 36 c 0,4.417969 3.582031,8 8,8 V 40 c 0,-4.464844 3.535156,-8 8,-8 4.464844,0 8,3.535156 8,8 V 76 C 88,84.882812 80.882812,92 72,92 63.117188,92 56,84.882812 56,76 V 24 c 0,-8.882812 7.117188,-16 16,-16 5.953125,0 11.101562,3.226562 13.859375,8 h 8.75 C 91.308594,6.671875 82.410156,0 72,0 Z m 0,0"
     fill="url(#b)"
     id="path28"
     style="display:inline;fill:#ffffff;fill-opacity:1" /></svg>
